<svg width="256" height="256" viewBox="0 0 256 256" fill="none" xmlns="http://www.w3.org/2000/svg">
<rect width="256" height="256" fill="url(#paint0_linear_1719_447523)"/>
<path d="M25.9707 29.6812H52.6837V225.354H25.9707V29.6812Z" fill="white"/>
<path d="M95.2194 195.045V172.561H114.141V122.029L92.7707 114.683L100.117 91.9768L131.505 102.662C137.441 98.6551 143.377 95.4643 149.313 93.0899C155.25 90.7154 162.818 89.5281 172.019 89.5281C181.814 89.5281 189.531 91.4574 195.171 95.3159C200.81 99.1745 204.817 104.369 207.192 110.899C209.714 117.428 210.976 124.626 210.976 132.492V172.561H229.452V195.045H173.8V172.561H182.927V135.831C182.927 129.598 181.666 124.478 179.143 120.471C176.62 116.464 171.871 114.46 164.896 114.46C160.444 114.46 156.14 115.277 151.985 116.909C147.978 118.393 144.713 120.1 142.19 122.029V172.561H151.094V195.045H95.2194Z" fill="white"/>
<defs>
<linearGradient id="paint0_linear_1719_447523" x1="-9.56311e-05" y1="256" x2="335.939" y2="60.7603" gradientUnits="userSpaceOnUse">
<stop stop-color="#F42D85"/>
<stop offset="0.244792" stop-color="#711CB4"/>
<stop offset="0.474078" stop-color="#481BA5"/>
<stop offset="0.723958" stop-color="#403EC6"/>
<stop offset="1" stop-color="#53C9EE"/>
</linearGradient>
</defs>
</svg>
