<svg width="256" height="256" viewBox="0 0 256 256" fill="none" xmlns="http://www.w3.org/2000/svg">
<path d="M202.666 117.333H83.5195L135.573 65.28C139.733 61.12 139.733 54.2933 135.573 50.1333C134.586 49.1445 133.414 48.36 132.124 47.8247C130.833 47.2894 129.45 47.0139 128.053 47.0139C126.656 47.0139 125.273 47.2894 123.982 47.8247C122.692 48.36 121.52 49.1445 120.533 50.1333L50.2395 120.427C49.2507 121.413 48.4662 122.586 47.9309 123.876C47.3956 125.166 47.1201 126.55 47.1201 127.947C47.1201 129.344 47.3956 130.727 47.9309 132.017C48.4662 133.308 49.2507 134.48 50.2395 135.467L120.533 205.76C121.52 206.748 122.693 207.531 123.983 208.065C125.273 208.6 126.656 208.875 128.053 208.875C129.449 208.875 130.832 208.6 132.123 208.065C133.413 207.531 134.585 206.748 135.573 205.76C136.56 204.772 137.344 203.6 137.878 202.31C138.413 201.019 138.688 199.637 138.688 198.24C138.688 196.843 138.413 195.46 137.878 194.17C137.344 192.88 136.56 191.708 135.573 190.72L83.5195 138.667H202.666C208.533 138.667 213.333 133.867 213.333 128C213.333 122.133 208.533 117.333 202.666 117.333Z" fill="black"/>
</svg>
