<svg width="427" height="118" viewBox="0 0 427 118" fill="none" xmlns="http://www.w3.org/2000/svg">
<g filter="url(#filter0_d_1704_446866)">
<path d="M14.7201 23.2C14.7201 15.6 16.6001 9.84004 20.3601 5.92004C24.1201 2.00004 29.8001 0.0400391 37.4001 0.0400391C40.9201 0.0400391 44.1601 0.480037 47.1201 1.36003C50.0801 2.16003 52.6001 3.40003 54.6801 5.08004L49.6401 15.64C45.7201 13.56 42.3201 12.52 39.4401 12.52C36.3201 12.52 33.8401 13.32 32.0001 14.92C30.2401 16.52 29.3601 19.2 29.3601 22.96V27.52H44.2401V39.64H29.3601V69.88H40.1601V82H4.64014V69.88H14.7201V39.64H4.64014V27.52H14.7201V23.2Z" fill="white"/>
<path d="M108.521 75.28C104.841 78.4 101.001 80.68 97.0008 82.12C93.0808 83.64 89.2008 84.4 85.3608 84.4C79.1208 84.4 73.6808 83.16 69.0408 80.68C64.4008 78.12 60.8008 74.64 58.2408 70.24C55.7608 65.76 54.5208 60.68 54.5208 55C54.5208 49 55.7208 43.76 58.1208 39.28C60.5208 34.8 63.8408 31.32 68.0808 28.84C72.3208 26.36 77.2408 25.12 82.8408 25.12C88.6808 25.12 93.7208 26.28 97.9608 28.6C102.281 30.92 105.601 34.16 107.921 38.32C110.321 42.4 111.521 47.24 111.521 52.84C111.521 53.88 111.441 55.08 111.281 56.44C111.201 57.8 111.041 59.08 110.801 60.28H69.0408C69.3608 63 70.2808 65.28 71.8008 67.12C73.3208 68.96 75.2408 70.32 77.5608 71.2C79.9608 72.08 82.5608 72.52 85.3608 72.52C88.7208 72.52 91.9608 71.96 95.0808 70.84C98.2008 69.72 101.041 68.16 103.601 66.16L108.521 75.28ZM96.4008 50.2C96.4008 46.44 95.2408 43.4 92.9208 41.08C90.6008 38.68 87.4008 37.48 83.3208 37.48C79.6408 37.48 76.4408 38.68 73.7208 41.08C71.0008 43.4 69.5608 46.44 69.4008 50.2H96.4008Z" fill="white"/>
<path d="M145.508 32.32C149.028 30 152.308 28.28 155.348 27.16C158.388 26.04 161.388 25.48 164.348 25.48C167.388 25.48 170.708 26.16 174.308 27.52L176.348 43.24L163.748 45.88L162.548 39.4C159.828 39.72 157.388 40.28 155.228 41.08C153.068 41.8 151.308 42.72 149.948 43.84L149.828 69.88H161.588V82H124.628V69.88H134.708V42.4L123.188 38.56L127.148 26.32L145.508 32.32Z" fill="white"/>
<path d="M188.49 82V69.76H198.45V42.04L187.05 38.56L191.01 26.32L208.53 31.84C211.09 29.6 213.93 27.92 217.05 26.8C220.25 25.68 223.45 25.12 226.65 25.12C229.69 25.12 232.61 25.72 235.41 26.92C238.21 28.04 240.53 29.76 242.37 32.08C244.93 30.08 247.73 28.44 250.77 27.16C253.81 25.8 257.05 25.12 260.49 25.12C268.09 25.12 273.61 27 277.05 30.76C280.49 34.52 282.21 40.8 282.21 49.6V69.76H292.41V82H262.53V69.76H266.97V49.96C266.97 45.72 266.29 42.72 264.93 40.96C263.65 39.2 261.37 38.32 258.09 38.32C256.57 38.32 254.85 38.72 252.93 39.52C251.01 40.24 249.37 41.16 248.01 42.28V69.76H252.45V82H228.09V69.76H232.77V49.96C232.77 45.72 232.09 42.72 230.73 40.96C229.45 39.2 227.17 38.32 223.89 38.32C222.37 38.32 220.65 38.72 218.73 39.52C216.89 40.24 215.21 41.16 213.69 42.28V69.76H218.49V82H188.49Z" fill="white"/>
<path d="M312.753 3.64003H327.153V109.12H312.753V3.64003Z" fill="white"/>
<path d="M350.083 82V69.88H360.283V42.64L348.763 38.68L352.723 26.44L369.643 32.2C372.843 30.04 376.043 28.32 379.243 27.04C382.443 25.76 386.523 25.12 391.483 25.12C396.763 25.12 400.923 26.16 403.963 28.24C407.003 30.32 409.163 33.12 410.443 36.64C411.803 40.16 412.483 44.04 412.483 48.28V69.88H422.443V82H392.443V69.88H397.363V50.08C397.363 46.72 396.683 43.96 395.323 41.8C393.963 39.64 391.403 38.56 387.643 38.56C385.243 38.56 382.923 39 380.683 39.88C378.523 40.68 376.763 41.6 375.403 42.64V69.88H380.203V82H350.083Z" fill="white"/>
</g>
<defs>
<filter id="filter0_d_1704_446866" x="0.640137" y="0.0400391" width="425.802" height="117.08" filterUnits="userSpaceOnUse" color-interpolation-filters="sRGB">
<feFlood flood-opacity="0" result="BackgroundImageFix"/>
<feColorMatrix in="SourceAlpha" type="matrix" values="0 0 0 0 0 0 0 0 0 0 0 0 0 0 0 0 0 0 127 0" result="hardAlpha"/>
<feOffset dy="4"/>
<feGaussianBlur stdDeviation="2"/>
<feComposite in2="hardAlpha" operator="out"/>
<feColorMatrix type="matrix" values="0 0 0 0 0 0 0 0 0 0 0 0 0 0 0 0 0 0 0.25 0"/>
<feBlend mode="normal" in2="BackgroundImageFix" result="effect1_dropShadow_1704_446866"/>
<feBlend mode="normal" in="SourceGraphic" in2="effect1_dropShadow_1704_446866" result="shape"/>
</filter>
</defs>
</svg>
